<?xml version="1.0" encoding="UTF-8"?>
<!DOCTYPE svg PUBLIC "-//W3C//DTD SVG 1.1//EN" "http://www.w3.org/Graphics/SVG/1.1/DTD/svg11.dtd">
<svg xmlns="http://www.w3.org/2000/svg" version="1.1" width="512px" height="512px" style="shape-rendering:geometricPrecision; text-rendering:geometricPrecision; image-rendering:optimizeQuality; fill-rule:evenodd; clip-rule:evenodd" xmlns:xlink="http://www.w3.org/1999/xlink">
<g><path style="opacity:1" fill="#6366f1" d="M 40.5,-0.5 C 183.833,-0.5 327.167,-0.5 470.5,-0.5C 491.833,5.5 505.5,19.1667 511.5,40.5C 511.5,183.833 511.5,327.167 511.5,470.5C 505.5,491.833 491.833,505.5 470.5,511.5C 327.167,511.5 183.833,511.5 40.5,511.5C 19.1667,505.5 5.5,491.833 -0.5,470.5C -0.5,327.167 -0.5,183.833 -0.5,40.5C 5.5,19.1667 19.1667,5.5 40.5,-0.5 Z"/></g>
<g><path style="opacity:1" fill="#fdfdfe" d="M 250.5,115.5 C 276.675,112.724 299.175,120.391 318,138.5C 326.137,154.996 321.304,164.662 303.5,167.5C 301.833,167.333 300.167,167.167 298.5,167C 292.764,162.936 286.764,159.27 280.5,156C 263.652,149.214 247.319,150.214 231.5,159C 227,162.167 223.167,166 220,170.5C 216.699,186.595 220.699,200.595 232,212.5C 237.542,217.711 243.375,222.544 249.5,227C 265.176,236.507 281.176,245.507 297.5,254C 313.568,262.734 326.402,274.901 336,290.5C 356.715,340.381 341.548,373.881 290.5,391C 245.684,403.091 207.517,392.258 176,358.5C 170.551,350.65 167.384,341.984 166.5,332.5C 166.784,323.709 171.118,317.876 179.5,315C 186.505,313.916 192.338,316.082 197,321.5C 200.527,327.221 203.527,333.221 206,339.5C 234.113,364.849 264.946,368.349 298.5,350C 309.938,340.027 312.438,328.194 306,314.5C 298.954,302.123 289.787,291.623 278.5,283C 261.663,273.08 244.663,263.414 227.5,254C 201.58,238.395 186.413,215.562 182,185.5C 180.246,171.765 183.58,159.432 192,148.5C 207.449,130.358 226.949,119.358 250.5,115.5 Z"/></g>
</svg>
