<?xml version="1.0" encoding="UTF-8"?>
<!DOCTYPE svg PUBLIC "-//W3C//DTD SVG 1.1//EN" "http://www.w3.org/Graphics/SVG/1.1/DTD/svg11.dtd">
<svg xmlns="http://www.w3.org/2000/svg" version="1.1" width="128px" height="128px" style="shape-rendering:geometricPrecision; text-rendering:geometricPrecision; image-rendering:optimizeQuality; fill-rule:evenodd; clip-rule:evenodd" xmlns:xlink="http://www.w3.org/1999/xlink">
<g><path style="opacity:1" fill="#209cee" d="M 7.5,-0.5 C 44.8333,-0.5 82.1667,-0.5 119.5,-0.5C 122.5,1.83333 125.167,4.5 127.5,7.5C 127.5,44.8333 127.5,82.1667 127.5,119.5C 125.167,122.5 122.5,125.167 119.5,127.5C 82.1667,127.5 44.8333,127.5 7.5,127.5C 4.5,125.167 1.83333,122.5 -0.5,119.5C -0.5,82.1667 -0.5,44.8333 -0.5,7.5C 1.83333,4.5 4.5,1.83333 7.5,-0.5 Z"/></g>
<g><path style="opacity:1" fill="#fafcfe" d="M 59.5,28.5 C 67.4219,27.0494 74.2552,29.0494 80,34.5C 81.6683,40.4931 79.5017,42.9931 73.5,42C 67.4577,37.1747 61.6244,37.3414 56,42.5C 54.9889,46.9822 56.1556,50.8155 59.5,54C 67.425,58.2101 74.925,63.0435 82,68.5C 88.1615,77.1987 87.9949,85.6987 81.5,94C 68.0901,102.309 55.5901,101.142 44,90.5C 41.826,87.4536 41.1593,84.1202 42,80.5C 43.8083,78.6041 45.975,78.1041 48.5,79C 52.4665,87.6152 59.1332,90.9486 68.5,89C 76.8995,87.3021 78.7328,82.8021 74,75.5C 66.9349,69.7162 59.4349,64.5495 51.5,60C 41.2236,45.9868 43.8902,35.4868 59.5,28.5 Z"/></g>
</svg>
